HIERARCHY
ROOT SpineBase
{
  OFFSET 0.000000 0.000000 0.000000
  CHANNELS 6 Xposition Yposition Zposition Zrotation Xrotation Yrotation
  JOINT SpineMid
  {
    OFFSET 0.000000 30.720687 0.000000
    CHANNELS 3 Zrotation Xrotation Yrotation
    JOINT SpineShoulder
    {
      OFFSET 0.304907 22.799568 -0.603102
      CHANNELS 3 Zrotation Xrotation Yrotation
      JOINT Neck
      {
        OFFSET 0.187426 7.548347 -0.500576
        CHANNELS 3 Zrotation Xrotation Yrotation
        JOINT Head
        {
          OFFSET 0.953439 14.050327 -0.371334
          CHANNELS 3 Zrotation Xrotation Yrotation
          End Site
          {
            OFFSET 0 0 0
          }
        }
      }
      JOINT ShoulderLeft
      {
        OFFSET -15.711771 -1.340242 -5.573611
        CHANNELS 3 Zrotation Xrotation Yrotation
        JOINT ElbowLeft
        {
          OFFSET -8.285268 -19.732285 -1.154509
          CHANNELS 3 Zrotation Xrotation Yrotation
          JOINT WristLeft
          {
            OFFSET 10.735647 -12.079702 -13.521416
            CHANNELS 3 Zrotation Xrotation Yrotation
            JOINT HandLeft
            {
              OFFSET 6.351669 -1.796307 -5.090238
              CHANNELS 3 Zrotation Xrotation Yrotation
              JOINT HandTipLeft
              {
                OFFSET 3.066699 -1.347964 -3.251718
                CHANNELS 3 Zrotation Xrotation Yrotation
                End Site
                {
                  OFFSET 0 0 0
                }
              }
              JOINT ThumbLeft
              {
                OFFSET 2.867781 1.249216 -1.705606
                CHANNELS 3 Zrotation Xrotation Yrotation
                End Site
                {
                  OFFSET 0 0 0
                }
              }
            }
          }
        }
      }
      JOINT ShoulderRight
      {
        OFFSET 16.771557 -2.538255 4.437067
        CHANNELS 3 Zrotation Xrotation Yrotation
        JOINT ElbowRight
        {
          OFFSET 6.554483 -22.633960 2.828477
          CHANNELS 3 Zrotation Xrotation Yrotation
          JOINT WristRight
          {
            OFFSET -2.035683 -19.030494 -9.584861
            CHANNELS 3 Zrotation Xrotation Yrotation
            JOINT HandRight
            {
              OFFSET -4.710531 -6.068919 -4.610454
              CHANNELS 3 Zrotation Xrotation Yrotation
              JOINT HandTipRight
              {
                OFFSET -1.008354 -6.347566 -3.786641
                CHANNELS 3 Zrotation Xrotation Yrotation
                End Site
                {
                  OFFSET 0 0 0
                }
              }
              JOINT ThumbRight
              {
                OFFSET -3.261251 2.279062 -0.492794
                CHANNELS 3 Zrotation Xrotation Yrotation
                End Site
                {
                  OFFSET 0 0 0
                }
              }
            }
          }
        }
      }
    }
  }
  JOINT HipLeft
  {
    OFFSET -6.700085 0.688291 -5.341268
    CHANNELS 3 Zrotation Xrotation Yrotation
    JOINT KneeLeft
    {
      OFFSET -5.736754 -35.456794 -1.747710
      CHANNELS 3 Zrotation Xrotation Yrotation
      JOINT AnkleLeft
      {
        OFFSET -4.270370 -35.407319 11.331555
        CHANNELS 3 Zrotation Xrotation Yrotation
        JOINT FootLeft
        {
          OFFSET 0.925999 -7.590192 -5.829871
          CHANNELS 3 Zrotation Xrotation Yrotation
          End Site
          {
            OFFSET 0 0 0
          }
        }
      }
    }
  }
  JOINT HipRight
  {
    OFFSET 7.847365 0.678745 -1.660202
    CHANNELS 3 Zrotation Xrotation Yrotation
    JOINT KneeRight
    {
      OFFSET 2.412385 -31.908689 2.687648
      CHANNELS 3 Zrotation Xrotation Yrotation
      JOINT AnkleRight
      {
        OFFSET -3.575362 -38.675985 9.695035
        CHANNELS 3 Zrotation Xrotation Yrotation
        JOINT FootRight
        {
          OFFSET 3.612455 -3.569684 -12.953368
          CHANNELS 3 Zrotation Xrotation Yrotation
          End Site
          {
            OFFSET 0 0 0
          }
        }
      }
    }
  }
}
MOTION
Frames: 14
Frame Time: 0.033333
-63.026002 77.766015 390.415580 -0.000000 0.000000 -14.199985 0.000000 0.000000 14.199985 -0.000000 0.000000 0.000000 -0.000000 0.000000 0.000000 0.000000 0.000000 0.000000 -0.000000 0.000000 0.000000 -0.000000 0.000000 0.000000 -0.000000 0.000000 0.000000 -0.000000 0.000000 0.000000 0.000000 0.000000 0.000000 0.000000 0.000000 0.000000 -0.000000 0.000000 0.000000 -0.000000 0.000000 0.000000 -0.000000 0.000000 0.000000 -0.000000 0.000000 0.000000 0.000000 0.000000 0.000000 0.000000 0.000000 0.000000 0.000000 0.000000 14.199985 -0.000000 0.000000 0.000000 -0.000000 0.000000 0.000000 0.000000 0.000000 0.000000 0.000000 0.000000 14.199985 -0.000000 0.000000 0.000000 -0.000000 0.000000 0.000000 0.000000 0.000000 0.000000
-63.137531 77.552936 390.350837 0.248752 0.326494 -15.026756 -0.155600 -0.379821 15.025531 -0.000000 0.000000 0.000000 -1.306823 0.828423 -0.081261 0.000000 0.000000 0.000000 1.568624 1.567819 -0.775416 -4.715851 -7.915810 -1.703333 -4.596669 -2.173620 -10.173635 -0.748161 -2.564668 8.967988 0.000000 0.000000 0.000000 0.000000 0.000000 0.000000 -2.451671 3.243311 0.709362 1.030428 -0.725116 -0.184890 0.154301 -4.047107 1.635290 -1.490795 2.421737 -0.508702 0.000000 0.000000 0.000000 0.000000 0.000000 0.000000 -0.155600 -0.379821 15.025531 -0.586436 0.654293 -0.263564 4.132824 8.440487 -1.504325 0.000000 0.000000 0.000000 -0.155600 -0.379821 15.025531 -0.000000 0.000000 0.000000 -0.000000 0.000000 0.000000 0.000000 0.000000 0.000000
-63.383049 77.364131 390.238234 0.562139 0.573886 -15.966247 0.419390 0.035787 15.984975 0.206664 0.003920 0.047715 -3.527195 1.048978 -0.226351 0.000000 0.000000 0.000000 1.989741 2.413919 -1.548217 -9.303401 -14.957010 -3.804799 -9.763412 -3.026875 -19.152453 2.572460 -1.088081 18.069839 0.000000 0.000000 0.000000 0.000000 0.000000 0.000000 -5.567138 5.393660 1.296432 1.704250 -1.258779 -0.301619 0.232489 -7.775673 3.211785 -2.750268 5.153025 -0.989576 0.000000 0.000000 0.000000 0.000000 0.000000 0.000000 -0.382628 -0.706356 15.961073 -0.997244 1.318291 -0.467918 7.876427 15.014813 -3.299553 0.000000 0.000000 0.000000 -0.641704 -1.562645 15.858299 1.639348 0.901995 0.354343 -0.719025 -0.136810 -1.852158 0.000000 0.000000 0.000000
-63.762557 77.199599 390.077772 0.940190 0.742956 -17.017168 0.566103 0.049407 17.046634 0.276216 -0.000817 0.072403 -4.892117 1.525288 -0.314606 0.000000 0.000000 0.000000 3.043146 3.432673 -2.251264 -13.722388 -20.956216 -6.095863 -14.077918 -2.536331 -25.690111 6.013780 1.599297 25.220678 0.000000 0.000000 0.000000 0.000000 0.000000 0.000000 -7.572249 7.330321 1.849596 2.047453 -1.638585 -0.382873 0.304170 -11.060034 4.641561 -3.818062 8.074032 -1.367717 0.000000 0.000000 0.000000 0.000000 0.000000 0.000000 -0.681706 -0.985502 17.005209 -1.216413 1.978158 -0.609492 11.190602 19.866719 -5.214941 0.000000 0.000000 0.000000 -0.885785 -2.076462 16.882131 2.323230 1.106954 0.523912 -1.140151 -0.127391 -2.885754 0.000000 0.000000 0.000000
-64.276055 77.059341 389.869450 1.383078 0.834266 -18.178118 0.671727 0.058518 18.219216 0.323551 -0.010028 0.097456 -5.996179 1.969199 -0.386503 0.000000 0.000000 0.000000 4.146717 4.354593 -2.919242 -17.899025 -25.867692 -8.379239 -17.127206 -1.369732 -29.936846 8.580313 4.121551 30.268899 0.000000 0.000000 0.000000 0.000000 0.000000 0.000000 -9.057159 8.795101 2.288285 2.087214 -1.900400 -0.451876 0.441829 -13.772264 5.837502 -4.774879 11.039488 -1.564073 0.000000 0.000000 0.000000 0.000000 0.000000 0.000000 -1.054040 -1.223903 18.156790 -1.234315 2.620134 -0.686998 14.067210 23.278525 -7.147643 0.000000 0.000000 0.000000 -1.085167 -2.408556 18.037911 2.909226 1.142704 0.693612 -1.597492 -0.064737 -3.990408 0.000000 0.000000 0.000000
-64.923542 76.943357 389.613269 1.891109 0.848180 -19.447426 0.736983 0.061317 19.501570 0.348849 -0.023719 0.122848 -6.842018 2.380660 -0.443017 0.000000 0.000000 0.000000 5.310288 5.195384 -3.560671 -21.741934 -29.725949 -10.474505 -19.101546 -0.079127 -32.598925 10.290766 6.075391 33.715022 0.000000 0.000000 0.000000 0.000000 0.000000 0.000000 -10.025764 9.816287 2.590089 1.844425 -2.070133 -0.522239 0.704483 -15.796960 6.722447 -5.724523 13.899493 -1.507766 0.000000 0.000000 0.000000 0.000000 0.000000 0.000000 -1.501300 -1.428987 19.414704 -1.048518 3.231387 -0.701375 16.522688 25.529746 -9.046290 0.000000 0.000000 0.000000 -1.248980 -2.556928 19.325232 3.391730 1.007659 0.867190 -2.086402 0.050774 -5.165108 0.000000 0.000000 0.000000
-65.752930 76.856061 389.284649 2.651984 0.761524 -21.123115 0.749552 0.038733 21.197411 0.340915 -0.060030 0.155959 -7.613980 3.006479 -0.498976 0.000000 0.000000 0.000000 6.962814 6.241720 -4.394938 -25.559626 -32.604450 -11.830418 -18.641004 1.682913 -34.191817 10.441634 6.019734 35.559776 0.000000 0.000000 0.000000 0.000000 0.000000 0.000000 -10.151648 10.381870 2.721059 1.024429 -2.354929 -0.720018 -0.166692 -16.965947 8.022394 -4.985612 17.355733 -2.524584 0.000000 0.000000 0.000000 0.000000 0.000000 0.000000 -2.200248 -1.665172 21.073509 -0.395693 3.969302 -0.598221 18.861000 25.614669 -11.357879 0.000000 0.000000 0.000000 -1.534326 -2.384415 21.058744 3.813113 0.615727 1.062921 -2.669813 0.115004 -6.722986 0.000000 0.000000 0.000000
-66.738184 76.803003 388.894160 3.415746 0.580854 -22.716161 0.697277 0.010752 22.813064 0.297866 -0.094364 0.185133 -7.880308 3.471837 -0.533156 0.000000 0.000000 0.000000 8.701195 7.012216 -5.111139 -28.496051 -33.963418 -12.251427 -18.470855 2.356633 -35.289277 10.551543 7.036189 36.230472 0.000000 0.000000 0.000000 0.000000 0.000000 0.000000 -9.010651 9.959002 2.525886 -1.066299 -1.772449 -0.718309 -0.144238 -16.830179 8.030303 -4.629006 19.961561 -2.778847 0.000000 0.000000 0.000000 0.000000 0.000000 0.000000 -1.602233 -2.764413 22.880900 -0.572073 6.086802 -0.673187 22.545089 28.802586 -14.705102 0.000000 0.000000 0.000000 -1.943054 -2.267776 22.692333 4.396304 0.148236 1.309457 -3.327188 0.341628 -8.214696 0.000000 0.000000 0.000000
-67.795752 76.745186 388.490181 4.124270 0.358658 -24.202734 0.656150 -0.008762 24.325586 0.264979 -0.112803 0.213060 -8.484107 3.782607 -0.556035 0.000000 0.000000 0.000000 9.733444 7.669851 -5.693164 -29.858121 -35.048575 -13.430338 -19.691651 2.168869 -36.012187 10.934042 7.386688 36.963429 0.000000 0.000000 0.000000 0.000000 0.000000 0.000000 -9.017091 10.181456 2.513090 -1.525908 -1.909109 -0.874723 1.711682 -17.624224 7.907607 -7.506191 22.507107 -1.193592 0.000000 0.000000 0.000000 0.000000 0.000000 0.000000 -1.262201 -3.408852 24.522345 -0.678959 7.390008 -0.681561 23.163545 28.362126 -15.646783 0.000000 0.000000 0.000000 -2.272599 -2.064619 24.230604 4.848860 -0.467871 1.564031 -3.974898 0.702109 -9.506257 0.000000 0.000000 0.000000
-68.858396 76.683663 388.097824 4.626870 0.122397 -25.355957 0.594171 -0.041848 25.502158 0.220368 -0.119108 0.230349 -8.155118 3.753218 -0.555130 0.000000 0.000000 0.000000 10.649200 7.774365 -5.905054 -31.676949 -35.403694 -13.729148 -20.061098 2.511182 -37.399021 11.223695 7.532070 38.152375 0.000000 0.000000 0.000000 0.000000 0.000000 0.000000 -8.951343 10.105091 2.410863 -1.328916 -2.220441 -1.051272 3.233306 -17.593911 7.604101 -11.371051 23.789719 1.354837 0.000000 0.000000 0.000000 0.000000 0.000000 0.000000 -0.946526 -3.837474 25.813059 -0.704224 8.047950 -0.635184 22.311498 25.925793 -15.516548 0.000000 0.000000 0.000000 -2.369661 -1.701360 25.451426 5.087925 -1.236188 1.811144 -4.555569 1.197084 -10.563347 0.000000 0.000000 0.000000
-69.871234 76.630033 387.714132 5.075224 -0.140173 -26.325050 0.606248 -0.066327 26.499865 0.214472 -0.132866 0.252039 -7.878737 3.881046 -0.560383 0.000000 0.000000 0.000000 10.986406 7.835041 -5.998082 -32.298129 -35.750509 -14.992657 -21.162059 2.159667 -36.381972 11.614813 7.689477 37.977250 0.000000 0.000000 0.000000 0.000000 0.000000 0.000000 -9.329976 9.900892 2.239352 -1.021680 -2.286672 -0.978420 4.742546 -16.430856 6.215853 -15.276436 24.124240 4.409403 0.000000 0.000000 0.000000 0.000000 0.000000 0.000000 -0.793019 -4.202175 26.911367 -0.538688 8.532804 -0.579833 22.596883 25.535612 -16.326093 0.000000 0.000000 0.000000 -2.462410 -1.477672 26.471262 5.333438 -1.834754 2.046665 -5.071656 1.696321 -11.486968 0.000000 0.000000 0.000000
-70.731784 76.554156 387.405143 5.414317 -0.425441 -26.982204 0.620729 -0.104964 27.186307 0.200865 -0.146495 0.269043 -7.385995 4.087198 -0.564450 0.000000 0.000000 0.000000 11.201228 7.870162 -6.019122 -32.094408 -36.087549 -16.987722 -22.430892 1.322824 -33.437625 11.870555 7.356077 35.917820 0.000000 0.000000 0.000000 0.000000 0.000000 0.000000 -9.757208 9.634585 2.044920 -0.569719 -2.283607 -0.832362 5.989696 -14.602859 4.315774 -18.417258 23.829176 7.041416 0.000000 0.000000 0.000000 0.000000 0.000000 0.000000 -0.938789 -4.425841 27.657721 -0.024792 8.756407 -0.500276 22.660647 25.250981 -17.021578 0.000000 0.000000 0.000000 -2.450399 -1.045745 27.194511 5.231177 -2.528342 2.215037 -5.374359 2.192453 -12.164304 0.000000 0.000000 0.000000
-71.366801 76.489431 387.206569 5.747577 -0.723808 -27.303338 0.643951 -0.133802 27.539059 0.186714 -0.150645 0.285775 -7.179397 4.444557 -0.578039 0.000000 0.000000 0.000000 11.104489 7.679043 -5.852217 -31.705424 -35.554923 -17.706923 -23.196715 0.770209 -33.116150 11.972604 7.626431 35.310838 0.000000 0.000000 0.000000 0.000000 0.000000 0.000000 -10.182982 9.177129 1.790299 -0.534449 -1.810277 -0.478354 7.197817 -13.343649 2.703836 -20.873475 22.037944 9.114562 0.000000 0.000000 0.000000 0.000000 0.000000 0.000000 -1.340779 -4.471876 28.016921 0.518888 8.580249 -0.386088 22.648612 25.223745 -17.617658 0.000000 0.000000 0.000000 -2.448858 -0.480739 27.589217 4.692767 -3.024083 2.233999 -5.351711 2.406478 -12.539027 0.000000 0.000000 0.000000
-71.894027 76.431797 387.056194 6.264719 -1.116443 -27.522876 0.714757 -0.166709 27.807898 0.192916 -0.168856 0.315385 -7.832146 5.197437 -0.598487 0.000000 0.000000 0.000000 10.679696 7.831353 -5.847816 -31.468696 -35.777822 -19.216286 -23.191184 0.663870 -30.480691 11.708071 6.214092 33.057892 0.000000 0.000000 0.000000 0.000000 0.000000 0.000000 -10.520932 8.910608 1.566770 -0.707884 -1.438836 -0.252466 7.423875 -11.682559 1.357403 -21.438309 21.348270 9.881938 0.000000 0.000000 0.000000 0.000000 0.000000 0.000000 -1.881295 -4.384177 28.258943 0.697261 8.297683 -0.288564 22.870659 25.221920 -18.172560 0.000000 0.000000 0.000000 -2.808812 0.173115 27.881601 4.428015 -3.501035 2.290355 -4.894111 4.318179 -12.464397 0.000000 0.000000 0.000000
